PathFileType	4	(X/Y/Z)	F:\MotionCapture\20160217\3\Generated_files\EMG_Fprce_test05-Dynamic.trc
DataRate	CameraRate	NumFrames	NumMarkers	Units	OrigDataRate	OrigDataStartFrame	OrigNumFrames
120.00	120.00	       4	39	mm	120.00	165	       188
Frame#	Time	Top.Head			Front.Head			Rear.Head			R.Shoulder			R.Offset			R.Elbow			R.Wrist			L.Shoulder			L.Elbow			L.Wrist			R.ASIS			L.ASIS			V.Sacral			R.Thigh			R.Knee			R.Shank			R.Ankle			R.Heel			R.Toe			L.Thigh			L.Knee			L.Shank			L.Ankle			L.Heel			L.Toe			R1			R2			R3			R4			R5			R6			R7			L1			L2			L3			L4			L5			L6			L7			V_Mid_ASIS			V_Pelvis_Origin			V_R.Hip_JC			V_L.Hip_JC			V_R.Knee_JC			V_L.Knee_JC			V_R.Ankle_JC			V_L.Ankle_JC			V_Mid_Hip			V_Mid_Shoulder			V_R.Hand			V_L.Hand			V_R.Toe_Offset_Static			V_L.Toe_Offset_Static			V_R.Toe_Offset			V_L.Toe_Offset			
		X1	Y1	Z1	X2	Y2	Z2	X3	Y3	Z3	X4	Y4	Z4	X5	Y5	Z5	X6	Y6	Z6	X7	Y7	Z7	X8	Y8	Z8	X9	Y9	Z9	X10	Y10	Z10	X11	Y11	Z11	X12	Y12	Z12	X13	Y13	Z13	X14	Y14	Z14	X15	Y15	Z15	X16	Y16	Z16	X17	Y17	Z17	X18	Y18	Z18	X19	Y19	Z19	X20	Y20	Z20	X21	Y21	Z21	X22	Y22	Z22	X23	Y23	Z23	X24	Y24	Z24	X25	Y25	Z25	X26	Y26	Z26	X27	Y27	Z27	X28	Y28	Z28	X29	Y29	Z29	X30	Y30	Z30	X31	Y31	Z31	X32	Y32	Z32	X33	Y33	Z33	X34	Y34	Z34	X35	Y35	Z35	X36	Y36	Z36	X37	Y37	Z37	X38	Y38	Z38	X39	Y39	Z39	

165	1.367	2459.32593	19.42646	1730.77307	2351.64160	22.82418	1641.17163	2571.58838	14.90578	1667.90295	2524.07813	228.20764	1440.42432	2649.71338	-33.23214	1280.03015	2613.03418	341.36862	1130.99536	2496.56299	397.20279	902.28558	2489.60815	-179.42342	1413.28284	2498.45923	-250.56142	1079.13916	2354.31421	-219.64937	868.48022	2456.58252	194.33971	961.06061	2452.15552	-94.69540	941.94373	2677.11646	47.98434	943.93915	2320.82153	197.27806	622.67004	2364.11377	250.91522	502.99783	2415.16943	194.77704	267.47217	2512.15405	264.48938	122.02090	2577.61230	197.96202	101.75522	2378.79517	259.04813	72.64223	2418.91431	-42.60722	617.86707	2518.99902	-88.33105	458.91190	2525.63428	-9.49455	318.07190	2648.95825	-54.17446	65.86037	2707.96582	9.22539	51.67274	2510.26221	-68.80592	47.25193	2327.11108	246.89061	64.11530	2366.75854	226.50320	80.21602	2456.12378	184.17249	102.21430	2528.00269	173.45610	94.78354	2555.07715	246.16843	102.55141	2478.87524	278.95914	73.51305	2417.33569	291.27048	63.35909	2463.24634	-45.91391	41.52209	2494.44678	-31.41433	51.55158	2582.51245	23.10590	56.92054	2665.45874	35.51159	51.85463	2688.17480	-33.99990	49.47686	2617.23853	-72.89363	36.67675	2554.87378	-92.18038	42.37344																																																	2812.90771	64.92005	248.74423	1892.69714	49.52792	250.31006	3092.69922	121.43806	-117.69227	
166	1.375	2462.60718	21.35097	1731.67834	2354.62427	25.27121	1642.46851	2574.78955	16.78483	1668.99524	2527.70215	230.00978	1441.62219	2652.57568	-31.42996	1280.89612	2615.58862	341.93845	1131.11731	2494.06763	396.90744	904.49799	2492.42798	-178.00491	1414.35498	2503.51318	-250.92186	1081.37976	2363.42993	-221.77968	866.96906	2460.36914	196.21121	961.72186	2454.25586	-93.87025	943.24890	2680.18579	48.86934	945.27954	2328.06128	199.12247	620.56250	2374.93433	252.39438	500.72589	2428.51001	196.36880	266.24631	2528.25732	266.38565	122.64024	2592.88818	198.75531	102.37517	2394.61426	261.54944	71.94411	2422.34351	-41.55405	618.53412	2521.93164	-87.62121	459.96326	2527.77222	-8.58913	318.98871	2648.97852	-54.52242	65.46400	2708.17773	8.99684	51.48643	2510.46777	-68.78148	47.50874	2342.75854	249.90762	63.19401	2382.45605	228.63101	79.80604	2471.45947	185.77039	101.54770	2543.60791	174.69087	94.66747	2570.51074	248.07362	102.06738	2494.97778	281.03412	73.69209	2432.90503	293.46231	63.09938	2462.80078	-45.37800	41.51860	2494.67993	-31.15491	51.91275	2582.80640	22.91414	56.87402	2665.41504	34.78819	50.85060	2688.34839	-34.26105	49.21596	2617.30200	-72.91658	36.63607	2555.04419	-92.11623	42.30013	
167	1.383	2465.68335	23.08657	1732.94775	2357.51147	27.15265	1642.81995	2577.91284	19.10647	1669.98962	2530.88379	231.64449	1442.03149	2655.73120	-29.73116	1281.52979	2618.67236	343.85712	1131.55518	2492.47583	397.11713	906.69080	2495.83179	-175.85916	1415.72266	2507.49316	-249.70557	1082.79956	2372.38184	-223.23808	865.51611	2464.11328	197.97165	961.78766	2456.36475	-91.92818	944.19885	2683.17798	49.81517	946.62366	2337.37598	201.68207	617.30396	2385.32471	253.93359	498.83612	2438.78906	196.92656	264.90527	2543.35132	269.92560	123.20491	2608.22290	199.87094	102.38036	2409.74268	263.26135	71.18990	2426.07056	-41.00343	619.43628	2525.06372	-86.77225	460.33032	2530.43506	-8.38026	319.13608	2649.26196	-53.79932	65.37132	2708.43506	8.81155	51.37948	2510.55981	-68.67487	47.55806	2358.38428	251.91150	62.56687	2397.97876	230.98991	79.07874	2484.95898	186.96777	101.66142	2558.64966	176.25047	94.86993	2585.83105	248.37773	102.30141	2510.21655	283.45908	74.02068	2449.22729	294.57007	63.17170	2462.73535	-44.91679	41.27073	2495.40112	-31.27073	51.96580	2583.07690	22.93235	57.30017	2665.62964	34.54228	51.15265	2688.47339	-34.43566	49.00231	2617.43701	-72.93887	36.65287	2555.07642	-92.08816	42.30763																																																	2909.71167	135.35591	358.78525	
168	1.392	2468.50000	25.73940	1733.54883	2360.24854	30.01071	1643.80725	2580.69238	21.26312	1670.91089	2534.57813	233.96590	1442.88147	2658.64893	-27.88557	1282.20728	2621.46411	345.77069	1131.60828	2490.69189	396.74152	909.16357	2499.24121	-173.37840	1416.82324	2512.37207	-249.93008	1084.80334	2381.74072	-224.83537	864.52185	2467.11035	199.14513	961.90521	2458.72144	-90.06335	944.57428	2686.26782	50.66348	947.88556	2345.27344	203.52560	614.71484	2395.49536	255.98195	497.12930	2454.59302	199.18143	263.59381	2560.40747	270.40906	123.45050	2623.03296	201.00270	102.57883	2425.27954	264.71136	70.71795	2429.38354	-39.84114	619.75842	2528.13525	-85.81455	462.04190	2532.71460	-8.47392	320.67538	2649.49097	-54.58006	65.37204	2708.70215	8.66392	51.29724	2510.60352	-68.56795	47.60869	2373.22437	254.01968	62.01251	2413.31738	232.65514	78.41483	2503.33691	188.36824	100.21126	2573.57593	177.55821	94.65155	2600.81860	250.58311	102.44860	2525.81567	283.74136	73.16402	2464.19824	296.77948	62.56714	2462.95703	-44.65053	41.27364	2494.74878	-31.02742	52.20046	2583.29907	22.89246	57.38207	2665.97046	34.22273	50.55853	2688.67212	-34.57658	48.90810	2618.87891	-73.05933	40.53732	2556.59351	-93.65451	46.27339																																																	2543.12988	205.38297	85.72025	
